<svg width="135" height="135" viewBox="0 0 135 135" fill="none" xmlns="http://www.w3.org/2000/svg">
<path d="M35.9875 22.0712C29.0035 22.0707 22.2799 24.7224 17.1764 29.4901C12.0729 34.2577 8.97039 40.7855 8.49623 47.7534C8.02207 54.7213 10.2117 61.6093 14.6222 67.0243C19.0328 72.4394 25.3352 75.9775 32.2549 76.9232C32.8094 76.9961 33.3702 76.8458 33.8138 76.5052C34.2575 76.1647 34.5478 75.6619 34.6207 75.1073C34.6936 74.5528 34.5433 73.992 34.2028 73.5483C33.8622 73.1047 33.3594 72.8144 32.8048 72.7415C27.6915 72.0199 22.9596 69.63 19.3442 65.9428C15.7287 62.2556 13.4321 57.4777 12.8111 52.3512C12.1369 46.6143 13.6143 40.8312 16.9575 36.1205C20.3007 31.4099 25.2721 28.1065 30.91 26.8493C36.548 25.5922 42.4518 26.4706 47.4796 29.3146C52.5073 32.1587 56.3017 36.7663 58.1287 42.2462C59.267 45.8968 59.4657 49.7755 58.7065 53.5233C54.7276 73.6081 46.764 92.6919 35.286 109.647C35.1321 109.878 35.0251 110.136 34.971 110.408C34.9169 110.68 34.9169 110.959 34.971 111.231C35.025 111.503 35.132 111.761 35.2859 111.991C35.4398 112.222 35.6376 112.42 35.8679 112.574C36.0983 112.727 36.3567 112.835 36.6284 112.889C36.9001 112.943 37.1798 112.943 37.4515 112.889C38.0003 112.779 38.4832 112.457 38.7941 111.992C50.5903 94.551 58.7731 74.924 62.8594 54.269C63.7456 49.8269 63.4951 45.2329 62.1312 40.9134C60.3081 35.4227 56.8005 30.6464 52.107 27.2637C47.4134 23.881 41.773 22.0641 35.9875 22.0712Z" fill="#2e73f2"/>
<path d="M125.333 40.9135C123.78 36.251 121.008 32.0887 117.305 28.858C113.602 25.6272 109.102 23.4455 104.272 22.5391C99.4421 21.6326 94.4575 22.0343 89.8351 23.7026C85.2126 25.3708 81.1203 28.2449 77.9824 32.027C74.8446 35.8091 72.7752 40.3615 71.9889 45.2125C71.2025 50.0635 71.7278 55.0365 73.5102 59.6162C75.2926 64.1959 78.2674 68.2155 82.1261 71.2586C85.9849 74.3017 90.5873 76.2575 95.4563 76.9232C96.0108 76.9961 96.5716 76.8458 97.0153 76.5053C97.459 76.1647 97.7492 75.6619 97.8221 75.1074C97.8951 74.5528 97.7447 73.9921 97.4042 73.5484C97.0636 73.1047 96.5608 72.8145 96.0063 72.7415C90.893 72.02 86.1611 69.63 82.5456 65.9428C78.9302 62.2557 76.6335 57.4777 76.0125 52.3512C75.3384 46.6143 76.8158 40.8312 80.1589 36.1206C83.5021 31.4099 88.4735 28.1065 94.1115 26.8494C99.7494 25.5922 105.653 26.4706 110.681 29.3147C115.709 32.1587 119.503 36.7663 121.33 42.2462C122.468 45.8968 122.667 49.7756 121.908 53.5233C117.929 73.6082 109.965 92.6919 98.4875 109.647C98.1787 110.113 98.0669 110.681 98.1766 111.229C98.2864 111.776 98.6087 112.258 99.073 112.568C99.5373 112.878 100.106 112.992 100.653 112.884C101.201 112.776 101.684 112.455 101.996 111.992C113.792 94.551 121.974 74.924 126.061 54.269C126.947 49.8269 126.697 45.2329 125.333 40.9135Z" fill="#2e73f2"/>
</svg>
